<svg width="1500" height="500" viewBox="0 -100 500 500" fill="none" xmlns="http://www.w3.org/2000/svg">
<path d="M0 52.75C4.75 50.9167 8.75 49.5833 12 48.75C15.25 47.8333 17.9167 47.1667 20 46.75C22.4167 46.3333 24.375 46.1667 25.875 46.25C27.625 46.5 29.4583 47.25 31.375 48.5C33.2917 49.75 35.3333 51.0833 37.5 52.5C39.6667 53.9167 42 55.2083 44.5 56.375C47 57.4583 49.7083 57.9167 52.625 57.75C54.9583 57.5833 57.2083 57.1667 59.375 56.5C61.2917 55.9167 63.2917 55.0833 65.375 54C67.5417 52.8333 69.4583 51.25 71.125 49.25C71.125 50.5833 71.3333 51.875 71.75 53.125C72 53.7917 72.25 54.4167 72.5 55C72.8333 55.6667 73.1667 56.4167 73.5 57.25C73.8333 58 74.2083 58.875 74.625 59.875C75.125 60.875 75.7083 62.0833 76.375 63.5C76.0417 64.4167 75.2083 65.1667 73.875 65.75C72.625 66.25 71.2917 66.7083 69.875 67.125C68.2083 67.5417 66.2917 67.875 64.125 68.125C60.5417 68.4583 57.2917 68.375 54.375 67.875C51.5417 67.2917 48.875 66.5417 46.375 65.625C43.9583 64.625 41.7083 63.5417 39.625 62.375C37.625 61.2083 35.7083 60.125 33.875 59.125C32.0417 58.125 30.2917 57.3333 28.625 56.75C26.9583 56.1667 25.25 55.9583 23.5 56.125C21.5 56.375 19.4167 56.9167 17.25 57.75C15.3333 58.4167 13.25 59.4167 11 60.75C8.75 62.0833 6.54167 63.875 4.375 66.125L0 52.75ZM182.5 1.75C184.083 1.83333 185.792 1.875 187.625 1.875C189.208 1.875 191 1.91667 193 2C195.083 2 197.25 1.91667 199.5 1.75C197.5 2.66667 195.75 4 194.25 5.75C192.75 7.5 191.542 9.25 190.625 11C189.458 13.0833 188.5 15.25 187.75 17.5C187.333 18.8333 187 21.2083 186.75 24.625C186.5 27.9583 186.292 31.875 186.125 36.375C186.042 40.875 186 45.625 186 50.625C186 55.625 186.042 60.4167 186.125 65C186.208 69.5 186.333 73.5 186.5 77C186.667 80.5 186.875 82.9583 187.125 84.375C187.458 86.0417 187.875 87.625 188.375 89.125C188.792 90.4583 189.333 91.8333 190 93.25C190.667 94.5833 191.5 95.6667 192.5 96.5L179.75 102.25C179.083 101.333 178.542 100.375 178.125 99.375C177.708 98.4583 177.375 97.625 177.125 96.875C176.792 95.9583 176.583 95.125 176.5 94.375C176.333 93.375 176.167 92.2917 176 91.125C175.833 89.875 175.625 88.7083 175.375 87.625C175.208 86.4583 175.083 85.5 175 84.75C174.917 84 174.917 83.5417 175 83.375C175.083 83.2083 174.583 83.9583 173.5 85.625C172.417 87.2083 170.792 89.0833 168.625 91.25C166.542 93.3333 163.958 95.375 160.875 97.375C157.792 99.2917 154.333 100.5 150.5 101C146.583 101.5 142.958 100.75 139.625 98.75C136.375 96.75 133.583 93.9583 131.25 90.375C128.917 86.7083 127.125 82.5 125.875 77.75C124.708 72.9167 124.25 68 124.5 63C124.667 59.6667 125.417 56.7083 126.75 54.125C128.083 51.4583 129.75 49.1667 131.75 47.25C133.833 45.25 136.083 43.5833 138.5 42.25C141 40.8333 143.417 39.6667 145.75 38.75C148.167 37.8333 150.417 37.1667 152.5 36.75C154.583 36.3333 156.25 36.0417 157.5 35.875C159 35.7917 160.708 36.0417 162.625 36.625C164.292 37.125 166.208 37.9583 168.375 39.125C170.625 40.2917 173.125 42.0417 175.875 44.375C175.375 36.0417 174.917 29.375 174.5 24.375C174.083 19.2917 173.667 15.4167 173.25 12.75C172.833 9.58333 172.458 7.41667 172.125 6.25C171.708 5.41667 171.167 4.58333 170.5 3.75C169.917 3.08333 169.167 2.41667 168.25 1.75C167.417 1 166.417 0.416667 165.25 0C167.417 0.416667 169.5 0.708333 171.5 0.875C173.5 1.04167 175.333 1.20833 177 1.375C178.917 1.54167 180.75 1.66667 182.5 1.75ZM151.125 48.375C149.542 48.9583 148.25 49.9583 147.25 51.375C146.333 52.7917 145.583 54.5 145 56.5C144.417 58.4167 144 60.5 143.75 62.75C143.583 64.9167 143.458 67.0417 143.375 69.125C143.375 71.125 143.375 72.9583 143.375 74.625C143.375 76.2917 143.375 77.5417 143.375 78.375C143.375 78.875 143.458 79.7917 143.625 81.125C143.875 82.375 144.375 83.7083 145.125 85.125C145.875 86.4583 146.917 87.6667 148.25 88.75C149.667 89.8333 151.542 90.375 153.875 90.375C155.792 90.2083 157.833 89.5417 160 88.375C161.917 87.375 164.083 85.7917 166.5 83.625C169 81.375 171.667 78.1667 174.5 74C174.333 71.3333 174.208 69.125 174.125 67.375C174.125 65.625 174.083 64.2083 174 63.125C173.917 61.875 173.875 60.875 173.875 60.125V58.25C173.875 57.75 173.875 57.2083 173.875 56.625C173.875 56.0417 173.917 55.5 174 55C171.667 53.3333 169.583 51.9167 167.75 50.75C166 49.5 164.25 48.5833 162.5 48C160.833 47.3333 159.083 47.0417 157.25 47.125C155.5 47.125 153.458 47.5417 151.125 48.375ZM193.125 8.125C195.792 8.79167 198.333 9.29167 200.75 9.625C203.167 9.95833 205.292 10.2083 207.125 10.375C209.292 10.625 211.292 10.7083 213.125 10.625C215.458 10.625 218.375 10.4167 221.875 10C225.458 9.58333 229.125 9.20833 232.875 8.875C236.625 8.45833 240.208 8.20833 243.625 8.125C247.125 7.95833 249.958 8.16667 252.125 8.75C254.292 9.25 256.5 10.0417 258.75 11.125C261.083 12.125 263.208 13.4167 265.125 15C267.042 16.5 268.625 18.2917 269.875 20.375C271.125 22.375 271.833 24.6667 272 27.25C271.917 30.5 271.167 33.5417 269.75 36.375C268.583 38.7917 266.625 41.2917 263.875 43.875C261.125 46.375 257.167 48.2917 252 49.625C254.583 49.9583 256.792 50.5417 258.625 51.375C260.542 52.125 262.167 53.0417 263.5 54.125C264.917 55.125 266.042 56.25 266.875 57.5C267.792 58.75 268.5 60 269 61.25C270.25 64.1667 270.833 67.4167 270.75 71C270.25 75.6667 269.292 79.375 267.875 82.125C266.542 84.875 265 87 263.25 88.5C261.5 90 259.708 91.0417 257.875 91.625C256.042 92.2083 254.375 92.6667 252.875 93C251.375 93.3333 249.542 93.5 247.375 93.5C245.208 93.5 242.875 93.4583 240.375 93.375C237.958 93.2083 235.458 93.0833 232.875 93C230.292 92.8333 227.833 92.8333 225.5 93C223.583 93.1667 221.25 93.3333 218.5 93.5C216.167 93.6667 213.25 93.875 209.75 94.125C206.25 94.2917 202.167 94.5 197.5 94.75C198.417 94.0833 199.167 93.3333 199.75 92.5C200.417 91.5833 200.958 90.7917 201.375 90.125C201.792 89.2917 202.167 88.5 202.5 87.75C202.75 87.0833 202.958 85.25 203.125 82.25C203.292 79.25 203.417 75.6667 203.5 71.5C203.583 67.25 203.625 62.7083 203.625 57.875C203.708 52.9583 203.667 48.25 203.5 43.75C203.417 39.1667 203.25 35.125 203 31.625C202.833 28.0417 202.583 25.4583 202.25 23.875C201.75 22.125 201.083 20.3333 200.25 18.5C199.583 16.9167 198.625 15.2083 197.375 13.375C196.208 11.5417 194.792 9.79167 193.125 8.125ZM219.5 20.875C219.5 21.2083 219.542 22.3333 219.625 24.25C219.708 25.9167 219.792 28.5 219.875 32C220.042 35.4167 220.25 40.2917 220.5 46.625C222.583 47.5417 224.625 48.0417 226.625 48.125C228.625 48.125 230.417 48.0417 232 47.875C233.833 47.625 235.583 47.2083 237.25 46.625C239.5 45.7083 241.25 44.2083 242.5 42.125C243.833 40.0417 244.708 37.875 245.125 35.625C245.625 33.2917 245.75 31.125 245.5 29.125C245.25 27.0417 244.708 25.5417 243.875 24.625C242.292 23.2083 240.333 22.0417 238 21.125C236 20.375 233.458 19.875 230.375 19.625C227.375 19.2917 223.75 19.7083 219.5 20.875ZM218.875 80.125C221.958 81.7083 224.667 82.75 227 83.25C229.333 83.75 231.292 84 232.875 84C234.708 84 236.292 83.75 237.625 83.25C239.208 82.5 240.75 81.5 242.25 80.25C243.833 78.9167 245 77.375 245.75 75.625C246.583 73.7917 246.917 71.7917 246.75 69.625C246.583 67.375 245.625 64.9167 243.875 62.25C242.292 60.3333 240.375 58.8333 238.125 57.75C236.125 56.8333 233.583 56.25 230.5 56C227.5 55.75 223.792 56.4583 219.375 58.125L218.875 80.125ZM307.875 9.625C310.625 9.95833 313.125 10.2083 315.375 10.375C317.542 10.5417 319.417 10.7083 321 10.875C322.833 11.0417 324.458 11.1667 325.875 11.25C327.375 11.25 329.292 11.2083 331.625 11.125C333.625 11.0417 336.167 10.9167 339.25 10.75C342.333 10.5833 346.125 10.2917 350.625 9.875C348.458 11.125 346.667 12.375 345.25 13.625C343.917 14.875 342.875 16 342.125 17C341.208 18.1667 340.542 19.3333 340.125 20.5C339.875 22.0833 339.958 25.1667 340.375 29.75C340.542 31.6667 340.792 34.0417 341.125 36.875C341.542 39.625 342.042 42.9167 342.625 46.75C343.292 50.5 344.083 54.8333 345 59.75C346 64.6667 347.125 70.25 348.375 76.5C350.042 71.75 351.417 67.5417 352.5 63.875C353.583 60.125 354.5 56.9167 355.25 54.25C356.083 51.25 356.792 48.5833 357.375 46.25C357.958 43.8333 358.667 40.7083 359.5 36.875C360.167 33.625 361.042 29.4167 362.125 24.25C363.208 19.0833 364.542 12.7083 366.125 5.125L370.625 5.75C371.042 11.6667 371.458 16.875 371.875 21.375C372.375 25.875 372.792 29.7083 373.125 32.875C373.458 36.5417 373.792 39.7083 374.125 42.375C374.458 44.7917 374.958 47.5833 375.625 50.75C376.208 53.4167 376.958 56.7083 377.875 60.625C378.792 64.4583 380 68.7917 381.5 73.625C383 67.7083 384.333 62.4167 385.5 57.75C386.75 53.0833 387.792 48.9583 388.625 45.375C389.542 41.7917 390.292 38.7083 390.875 36.125C391.542 33.5417 392.083 31.375 392.5 29.625C393.417 25.4583 393.958 22.6667 394.125 21.25C394.042 19.6667 393.667 18.125 393 16.625C392.417 15.2917 391.5 13.8333 390.25 12.25C389 10.6667 387.167 9.125 384.75 7.625C389.833 7.79167 393.958 7.91667 397.125 8C400.375 8 402.958 8 404.875 8H409.875H414.375C416.042 8 418.208 8 420.875 8C423.625 7.91667 427.125 7.79167 431.375 7.625C427.708 9.54167 424.75 11.2917 422.5 12.875C420.25 14.4583 418.5 15.7917 417.25 16.875C415.75 18.2083 414.667 19.3333 414 20.25C413.333 21.9167 412.25 25.6667 410.75 31.5C410.083 34 409.333 37.125 408.5 40.875C407.667 44.5417 406.667 48.9583 405.5 54.125C404.417 59.2917 403.167 65.3333 401.75 72.25C400.333 79.0833 398.75 86.9167 397 95.75L375.375 93.5L366.125 54.625C364.708 61.7083 363.583 67.4583 362.75 71.875C361.917 76.2083 361.292 79.5833 360.875 82C360.375 84.9167 360.083 87.0417 360 88.375C359.917 89.5417 359.833 90.6667 359.75 91.75C359.667 92.6667 359.542 93.6667 359.375 94.75C359.292 95.8333 359.167 96.8333 359 97.75H336.875C334.708 88.25 332.75 79.875 331 72.625C329.333 65.2917 327.833 58.875 326.5 53.375C325.167 47.875 324 43.2083 323 39.375C322.083 35.5417 321.25 32.3333 320.5 29.75C318.833 23.75 317.625 20.0417 316.875 18.625C316.292 17.9583 315.542 17.1667 314.625 16.25C313.875 15.5 312.958 14.5833 311.875 13.5C310.708 12.3333 309.375 11.0417 307.875 9.625ZM423.375 46.875C423.792 46.375 424.042 45.4583 424.125 44.125C424.292 42.7083 424.625 41.125 425.125 39.375C425.708 37.625 426.667 35.7917 428 33.875C429.333 31.9583 431.5 30.1667 434.5 28.5C437.417 26.8333 440.25 25.8333 443 25.5C445.75 25.1667 448.375 25.2917 450.875 25.875C453.375 26.4583 455.708 27.375 457.875 28.625C460.125 29.875 462.167 31.25 464 32.75C465.25 33.75 466.25 35.2083 467 37.125C467.75 38.9583 468.333 41.0417 468.75 43.375C469.167 45.7083 469.458 48.1667 469.625 50.75C469.875 53.25 470.042 55.7083 470.125 58.125C470.208 60.4583 470.25 62.625 470.25 64.625C470.333 66.5417 470.5 68.125 470.75 69.375C471.083 71.2083 471.667 72.7917 472.5 74.125C473.333 75.375 474.25 76.4583 475.25 77.375C476.25 78.2083 477.25 78.875 478.25 79.375C479.25 79.875 480.125 80.25 480.875 80.5C481.375 80.75 481.833 80.9167 482.25 81C483.083 81.3333 483.667 81.3333 484 81C483.5 82.1667 483.042 83.1667 482.625 84C482.208 84.8333 481.875 85.5417 481.625 86.125C481.292 86.7917 481 87.3333 480.75 87.75C480.5 88.25 480.208 88.7083 479.875 89.125C479.625 89.5417 479.292 90 478.875 90.5C478.458 91 478.042 91.5417 477.625 92.125C476.542 91.7083 475.5 91.2083 474.5 90.625C473.583 90.0417 472.75 89.5 472 89C471.083 88.4167 470.25 87.8333 469.5 87.25C468.75 86.6667 468.042 86 467.375 85.25C466.792 84.5833 466.167 83.875 465.5 83.125C464.917 82.375 464.417 81.5417 464 80.625C463.5 81.7083 462.292 83.25 460.375 85.25C458.542 87.25 456.125 89.0833 453.125 90.75C450.125 92.3333 446.625 93.4583 442.625 94.125C438.708 94.7917 434.375 94.3333 429.625 92.75C427.542 92.0833 425.583 91.125 423.75 89.875C421.917 88.5417 420.333 86.9583 419 85.125C417.75 83.2917 416.833 81.2083 416.25 78.875C415.75 76.4583 415.792 73.7917 416.375 70.875C416.958 67.9583 418 65.5 419.5 63.5C421 61.5 422.792 59.875 424.875 58.625C426.958 57.375 429.292 56.4167 431.875 55.75C434.458 55.0833 437.125 54.625 439.875 54.375C442.042 54.2917 444.208 54.4167 446.375 54.75C448.208 55.0833 450.125 55.7083 452.125 56.625C454.125 57.4583 455.833 58.75 457.25 60.5C457.167 56.0833 457 52.5833 456.75 50C456.583 47.3333 456.417 45.2917 456.25 43.875C455.917 42.2083 455.625 41.0417 455.375 40.375C454.958 39.7917 454.5 39.125 454 38.375C453.583 37.625 453.042 36.9583 452.375 36.375C451.708 35.7083 450.875 35.1667 449.875 34.75C448.875 34.3333 447.708 34.1667 446.375 34.25C444.958 34.3333 443.833 34.7083 443 35.375C442.167 36.0417 441.5 36.8333 441 37.75C440.583 38.5833 440.333 39.5 440.25 40.5C440.167 41.5 440.208 42.375 440.375 43.125C440.542 43.625 440.792 44.1667 441.125 44.75C441.458 45.25 441.917 45.7917 442.5 46.375C443.083 46.9583 443.875 47.4583 444.875 47.875C442.958 48.125 441.25 48.3333 439.75 48.5C438.25 48.5833 436.958 48.7083 435.875 48.875C434.625 49.0417 433.542 49.1667 432.625 49.25C431.708 49.3333 430.625 49.5 429.375 49.75C428.292 49.9167 426.958 50.125 425.375 50.375C423.792 50.625 421.958 50.9583 419.875 51.375C420.375 50.7917 420.833 50.25 421.25 49.75C421.667 49.1667 422.042 48.6667 422.375 48.25C422.708 47.75 423.042 47.2917 423.375 46.875ZM442.125 61.75C440.625 61.8333 439.125 62.2083 437.625 62.875C436.125 63.4583 434.792 64.3333 433.625 65.5C432.458 66.5833 431.458 67.875 430.625 69.375C429.875 70.7917 429.5 72.375 429.5 74.125C429.5 75.875 429.917 77.4167 430.75 78.75C431.667 80 432.833 81.0417 434.25 81.875C435.75 82.7083 437.333 83.2083 439 83.375C440.75 83.5417 442.458 83.375 444.125 82.875C445.708 82.2917 447.208 81.375 448.625 80.125C450.042 78.7917 451.25 77.375 452.25 75.875C453.25 74.2917 453.958 72.75 454.375 71.25C454.792 69.6667 454.833 68.375 454.5 67.375C453.833 65.2083 452.333 63.7083 450 62.875C447.667 61.9583 445.042 61.5833 442.125 61.75ZM481.25 18.75C483.75 19 485.833 19.2083 487.5 19.375C489.25 19.5417 490.667 19.6667 491.75 19.75C493 19.8333 494 19.875 494.75 19.875C495.5 19.9583 496.5 19.9583 497.75 19.875C498.833 19.7917 500.25 19.7083 502 19.625C503.75 19.4583 505.958 19.2083 508.625 18.875C508.042 19.7083 507.583 20.4583 507.25 21.125C506.917 21.7083 506.625 22.25 506.375 22.75L505.625 24.25C505.458 24.75 505.292 25.25 505.125 25.75C504.958 26.1667 504.792 26.6667 504.625 27.25C504.542 27.8333 504.458 28.4583 504.375 29.125H523.625L521.875 39.25L504.25 38.25C503.833 42.5 503.542 45.7917 503.375 48.125C503.208 50.4583 503.042 52.1667 502.875 53.25L502.625 55.5C502.375 58.6667 502.125 62.125 501.875 65.875C501.625 69.5417 501.542 72.9583 501.625 76.125C501.708 79.2917 502 81.9583 502.5 84.125C503 86.2083 503.875 87.25 505.125 87.25C506.375 87.25 507.542 86.9167 508.625 86.25C509.708 85.5833 510.625 84.7917 511.375 83.875C512.208 82.9583 512.833 82.0417 513.25 81.125C513.667 80.125 513.875 79.375 513.875 78.875C513.875 78.375 513.75 77.7917 513.5 77.125C513.083 75.875 512.333 74.2917 511.25 72.375C513.667 72.9583 515.792 73.5417 517.625 74.125C518.542 74.4583 519.375 74.7917 520.125 75.125C520.958 75.4583 521.917 75.8333 523 76.25C523.917 76.6667 525.083 77.1667 526.5 77.75C527.917 78.3333 529.583 79.0417 531.5 79.875C529.667 80.2083 528.333 80.75 527.5 81.5C527 81.8333 526.625 82.2083 526.375 82.625C525.792 83.5417 525.125 84.7917 524.375 86.375C523.625 87.875 522.5 89.375 521 90.875C519.5 92.375 517.458 93.7083 514.875 94.875C512.375 96.0417 509 96.7083 504.75 96.875C500.333 97.0417 496.958 96.2917 494.625 94.625C492.375 92.9583 490.708 91.0417 489.625 88.875C488.625 86.625 488.042 84.4167 487.875 82.25C487.708 80.0833 487.583 78.625 487.5 77.875C487.417 77.125 487.417 75.25 487.5 72.25C487.583 69.25 487.708 65.9583 487.875 62.375C488.042 58.7083 488.208 55.2083 488.375 51.875C488.542 48.4583 488.625 45.9583 488.625 44.375C488.625 43.5417 488.667 42.6667 488.75 41.75C488.75 41 488.75 40.2083 488.75 39.375C488.833 38.4583 488.875 37.5833 488.875 36.75L470.75 36.625L470 29.5L488.25 30C488.083 29.0833 487.875 28.25 487.625 27.5C487.458 26.6667 487.292 26 487.125 25.5C486.875 24.9167 486.625 24.4167 486.375 24C486.042 23.5833 485.667 23.125 485.25 22.625C484.833 22.2083 484.292 21.6667 483.625 21C482.958 20.3333 482.167 19.5833 481.25 18.75ZM596.25 53.125C595.25 52.9583 594 52.8333 592.5 52.75C591.083 52.6667 589.708 52.625 588.375 52.625C586.875 52.625 585.292 52.6667 583.625 52.75C581.875 52.8333 580.125 52.9167 578.375 53C576.875 53.0833 575.167 53.2083 573.25 53.375C571.417 53.4583 569.625 53.5833 567.875 53.75C568.542 53.4167 569.125 52.9583 569.625 52.375C570.208 51.7917 570.708 51.2083 571.125 50.625C571.542 49.9583 571.917 49.25 572.25 48.5C572.667 47.25 572.625 45.75 572.125 44C571.625 42.1667 570.708 40.5 569.375 39C568.125 37.5 566.5 36.3333 564.5 35.5C562.583 34.5833 560.458 34.375 558.125 34.875C555.625 35.4583 553.375 36.3333 551.375 37.5C549.458 38.6667 547.833 40.2917 546.5 42.375C545.25 44.375 544.333 46.875 543.75 49.875C543.25 52.7917 543.125 56.2917 543.375 60.375C543.708 65.4583 544.542 69.5 545.875 72.5C547.208 75.5 548.833 77.75 550.75 79.25C552.667 80.75 554.75 81.6667 557 82C559.333 82.25 561.625 82.25 563.875 82C565.458 81.6667 566.917 80.9583 568.25 79.875C569.333 78.9583 570.333 77.625 571.25 75.875C572.167 74.125 572.583 71.7083 572.5 68.625L587.75 68C586 72.9167 583.875 76.8333 581.375 79.75C578.875 82.5833 576.458 84.7917 574.125 86.375C571.375 88.2083 568.625 89.4583 565.875 90.125C562.458 90.7083 559.417 90.9583 556.75 90.875C554.083 90.7083 551.667 90.2917 549.5 89.625C547.333 88.9583 545.333 88.125 543.5 87.125C541.667 86.125 539.917 85.0417 538.25 83.875C537.167 83.125 535.958 81.875 534.625 80.125C533.292 78.375 532.042 76.2917 530.875 73.875C529.708 71.375 528.75 68.625 528 65.625C527.25 62.625 526.958 59.5417 527.125 56.375C527.292 53.125 528.042 49.875 529.375 46.625C530.708 43.375 532.833 40.25 535.75 37.25C540.167 32.75 544.875 29.8333 549.875 28.5C554.958 27.0833 559.75 26.7083 564.25 27.375C568.75 27.9583 572.75 29.25 576.25 31.25C579.75 33.25 582.208 35.4167 583.625 37.75C585.042 40.0833 586.083 41.875 586.75 43.125C587.5 44.2917 588.042 45.2083 588.375 45.875C588.792 46.4583 589.125 46.9167 589.375 47.25C589.708 47.5 590.167 47.875 590.75 48.375C591.167 48.7917 591.667 49.25 592.25 49.75C592.75 50.1667 593.333 50.6667 594 51.25C594.667 51.8333 595.417 52.4583 596.25 53.125ZM593.75 2.75C595.667 3.08333 597.417 3.33333 599 3.5C600.583 3.58333 601.917 3.66667 603 3.75C604.25 3.83333 605.333 3.875 606.25 3.875C607.5 3.79167 608.958 3.66667 610.625 3.5C612.042 3.33333 613.75 3.125 615.75 2.875C617.833 2.625 620.208 2.29167 622.875 1.875C621.625 2.54167 620.583 3.20833 619.75 3.875C618.917 4.45833 618.25 5.08333 617.75 5.75C617.167 6.5 616.708 7.20833 616.375 7.875C615.958 8.95833 615.5 11.2083 615 14.625C614.5 17.5417 613.875 21.875 613.125 27.625C612.458 33.375 611.583 41.1667 610.5 51C613.5 48 616.333 45.75 619 44.25C621.75 42.6667 624.167 41.5417 626.25 40.875C628.667 40.125 630.917 39.75 633 39.75C635.583 40 638.208 40.8333 640.875 42.25C643.625 43.5833 646.167 45.1667 648.5 47C650.917 48.8333 653 50.7917 654.75 52.875C656.583 54.9583 657.875 56.7917 658.625 58.375C659.125 59.4583 659.375 60.875 659.375 62.625C659.375 64.2917 659.208 66.125 658.875 68.125C658.542 70.125 658.083 72.1667 657.5 74.25C656.917 76.3333 656.333 78.2917 655.75 80.125C655.25 81.9583 654.792 83.5833 654.375 85C653.958 86.3333 653.708 87.2917 653.625 87.875C653.458 89.125 653.542 90.3333 653.875 91.5C654.125 92.5 654.625 93.5833 655.375 94.75C656.125 95.8333 657.25 96.75 658.75 97.5C657.583 97.3333 656.333 97.2083 655 97.125C653.75 96.9583 652.542 96.8333 651.375 96.75C650.042 96.6667 648.708 96.625 647.375 96.625H642.875C641.458 96.625 639.833 96.6667 638 96.75C636.167 96.75 634.167 96.7917 632 96.875C633.167 96.4583 634.167 95.9167 635 95.25C635.833 94.5 636.542 93.7917 637.125 93.125C637.792 92.375 638.375 91.5833 638.875 90.75C639.208 90.0833 639.625 88.8333 640.125 87C640.625 85.0833 641.083 82.9167 641.5 80.5C641.917 78 642.208 75.375 642.375 72.625C642.625 69.875 642.667 67.25 642.5 64.75C642.417 62.1667 642.042 59.875 641.375 57.875C640.792 55.875 639.875 54.4167 638.625 53.5C634.875 50.6667 631.458 49.2917 628.375 49.375C625.375 49.375 622.5 50.5833 619.75 53C618.75 53.9167 617.792 54.8333 616.875 55.75C616.042 56.5833 615.125 57.5833 614.125 58.75C613.125 59.8333 612.208 60.9583 611.375 62.125C611.375 63.375 611.417 64.75 611.5 66.25C611.583 67.75 611.667 69.2083 611.75 70.625C611.833 72.2083 611.958 73.7917 612.125 75.375C612.292 77.7917 612.542 80.1667 612.875 82.5C613.125 84.5 613.458 86.7083 613.875 89.125C614.292 91.4583 614.833 93.5833 615.5 95.5C614.417 95.3333 613.292 95.2917 612.125 95.375C610.958 95.375 609.833 95.375 608.75 95.375C607.5 95.4583 606.292 95.5 605.125 95.5C604.042 95.5833 602.917 95.7083 601.75 95.875C600.75 96.0417 599.667 96.2083 598.5 96.375C597.333 96.4583 596.208 96.625 595.125 96.875C596.125 94.9583 596.958 93.0833 597.625 91.25C598.292 89.3333 598.833 87.6667 599.25 86.25C599.75 84.5833 600.167 82.9583 600.5 81.375C600.75 80.125 600.917 77.75 601 74.25C601.167 70.6667 601.292 66.5833 601.375 62C601.458 57.3333 601.5 52.4167 601.5 47.25C601.5 42.0833 601.458 37.1667 601.375 32.5C601.292 27.8333 601.125 23.75 600.875 20.25C600.708 16.75 600.5 14.3333 600.25 13C599.917 11.6667 599.458 10.3333 598.875 9C598.375 7.83333 597.708 6.70833 596.875 5.625C596.042 4.45833 595 3.5 593.75 2.75ZM706.625 52.75C711.375 50.9167 715.375 49.5833 718.625 48.75C721.875 47.8333 724.542 47.1667 726.625 46.75C729.042 46.3333 731 46.1667 732.5 46.25C734.25 46.5 736.083 47.25 738 48.5C739.917 49.75 741.958 51.0833 744.125 52.5C746.292 53.9167 748.625 55.2083 751.125 56.375C753.625 57.4583 756.333 57.9167 759.25 57.75C761.583 57.5833 763.833 57.1667 766 56.5C767.917 55.9167 769.917 55.0833 772 54C774.167 52.8333 776.083 51.25 777.75 49.25C777.75 50.5833 777.958 51.875 778.375 53.125C778.625 53.7917 778.875 54.4167 779.125 55C779.458 55.6667 779.792 56.4167 780.125 57.25C780.458 58 780.833 58.875 781.25 59.875C781.75 60.875 782.333 62.0833 783 63.5C782.667 64.4167 781.833 65.1667 780.5 65.75C779.25 66.25 777.917 66.7083 776.5 67.125C774.833 67.5417 772.917 67.875 770.75 68.125C767.167 68.4583 763.917 68.375 761 67.875C758.167 67.2917 755.5 66.5417 753 65.625C750.583 64.625 748.333 63.5417 746.25 62.375C744.25 61.2083 742.333 60.125 740.5 59.125C738.667 58.125 736.917 57.3333 735.25 56.75C733.583 56.1667 731.875 55.9583 730.125 56.125C728.125 56.375 726.042 56.9167 723.875 57.75C721.958 58.4167 719.875 59.4167 717.625 60.75C715.375 62.0833 713.167 63.875 711 66.125L706.625 52.75Z" fill="black"/>
</svg>
